<?xml version="1.0" encoding="UTF-8" standalone="no"?>
<!-- Created with Inkscape (http://www.inkscape.org/) -->

<svg
   xmlns:dc="http://purl.org/dc/elements/1.1/"
   xmlns:cc="http://creativecommons.org/ns#"
   xmlns:rdf="http://www.w3.org/1999/02/22-rdf-syntax-ns#"
   xmlns:svg="http://www.w3.org/2000/svg"
   xmlns="http://www.w3.org/2000/svg"
   xmlns:sodipodi="http://sodipodi.sourceforge.net/DTD/sodipodi-0.dtd"
   xmlns:inkscape="http://www.inkscape.org/namespaces/inkscape"
   version="1.1"
   id="svg4518"
   width="333.33334"
   height="276"
   viewBox="0 0 333.33334 276"
   sodipodi:docname="icon.svg"
   inkscape:version="0.92.4 (5da689c313, 2019-01-14)">
  <metadata
     id="metadata4524">
    <rdf:RDF>
      <cc:Work
         rdf:about="">
        <dc:format>image/svg+xml</dc:format>
        <dc:type
           rdf:resource="http://purl.org/dc/dcmitype/StillImage" />
        <dc:title></dc:title>
      </cc:Work>
    </rdf:RDF>
  </metadata>
  <defs
     id="defs4522" />
  <sodipodi:namedview
     pagecolor="#ffffff"
     bordercolor="#666666"
     borderopacity="1"
     objecttolerance="10"
     gridtolerance="10"
     guidetolerance="10"
     inkscape:pageopacity="0"
     inkscape:pageshadow="2"
     inkscape:window-width="1920"
     inkscape:window-height="1027"
     id="namedview4520"
     showgrid="false"
     inkscape:zoom="1.5543478"
     inkscape:cx="159.76803"
     inkscape:cy="110.47755"
     inkscape:window-x="-8"
     inkscape:window-y="-8"
     inkscape:window-maximized="1"
     inkscape:current-layer="svg4518" />
  <path
     style="fill:#000000;stroke-width:1.33333337"
     d="M 20,11.318784 C 20,8.8517096 34.745406,16.468692 121.98342,64 c 53.83781,29.333333 98.3661,53.30818 98.95176,53.27744 C 221.52083,117.24669 236.4,93.271847 254.00001,64 c 22.30601,-37.098759 32.70685,-53.238472 34.33333,-53.277436 2.19456,-0.05257 2.33333,4.296487 2.33333,73.124688 v 73.180588 l -70.33333,52.39659 C 181.65,238.24255 148.7718,262.05795 147.27066,262.34753 103.51182,174.23102 68.413675,128.18673 20,11.318784 Z M 148.28542,259.17123 c -98.856947,11.21918 -49.428473,5.60959 0,0 z m 138.07061,-206.594083 -0.35602,-34.275908 -30.5017,50.28102 c -21.2096,34.963311 -31.89693,49.795641 -30.92809,50.764481 0.76632,0.76631 16.31177,9.416 32.32139,18.10951 l 29.1084,15.80638 0.35602,-33.20479 c 0.19583,-18.26263 0.19583,-48.628943 0,-67.480693 z"
     id="path4528"
     inkscape:connector-curvature="0"
     sodipodi:nodetypes="cscscscsccccccscsccc" />
</svg>
